<svg width="204" height="13" viewBox="0 0 204 13" fill="none" xmlns="http://www.w3.org/2000/svg">
<path d="M5.82955 3.45455H6.85227C6.8054 2.13778 5.59091 1.15341 3.90341 1.15341C2.23295 1.15341 0.920455 2.125 0.920455 3.59091C0.920455 4.76705 1.77273 5.46591 3.13636 5.85795L4.21023 6.16477C5.13068 6.42045 5.94886 6.74432 5.94886 7.61364C5.94886 8.56818 5.02841 9.19886 3.81818 9.19886C2.77841 9.19886 1.85795 8.73864 1.77273 7.75H0.681818C0.784091 9.18182 1.94318 10.1534 3.81818 10.1534C5.82955 10.1534 6.97159 9.04545 6.97159 7.63068C6.97159 5.99432 5.42045 5.46591 4.51705 5.22727L3.63068 4.98864C2.98295 4.81818 1.94318 4.47727 1.94318 3.53977C1.94318 2.70455 2.71023 2.09091 3.86932 2.09091C4.92614 2.09091 5.72727 2.59375 5.82955 3.45455ZM11.2319 10.1364C13.0046 10.1364 14.1978 8.78977 14.1978 6.76136C14.1978 4.71591 13.0046 3.36932 11.2319 3.36932C9.45916 3.36932 8.26598 4.71591 8.26598 6.76136C8.26598 8.78977 9.45916 10.1364 11.2319 10.1364ZM11.2319 9.23295C9.8853 9.23295 9.27166 8.07386 9.27166 6.76136C9.27166 5.44886 9.8853 4.27273 11.2319 4.27273C12.5785 4.27273 13.1921 5.44886 13.1921 6.76136C13.1921 8.07386 12.5785 9.23295 11.2319 9.23295ZM16.7386 1.27273H15.733V10H16.7386V1.27273ZM21.2397 10.1364C23.0124 10.1364 24.2056 8.78977 24.2056 6.76136C24.2056 4.71591 23.0124 3.36932 21.2397 3.36932C19.467 3.36932 18.2738 4.71591 18.2738 6.76136C18.2738 8.78977 19.467 10.1364 21.2397 10.1364ZM21.2397 9.23295C19.8931 9.23295 19.2795 8.07386 19.2795 6.76136C19.2795 5.44886 19.8931 4.27273 21.2397 4.27273C22.5863 4.27273 23.1999 5.44886 23.1999 6.76136C23.1999 8.07386 22.5863 9.23295 21.2397 9.23295ZM30.1214 1.27273H29.1158V10H30.1214V1.27273ZM34.7077 10.1364C36.0373 10.1364 37.0089 9.47159 37.3157 8.48295L36.3441 8.21023C36.0884 8.89205 35.4961 9.23295 34.7077 9.23295C33.5273 9.23295 32.7134 8.47017 32.6665 7.06818H37.418V6.64205C37.418 4.20455 35.9691 3.36932 34.6055 3.36932C32.8327 3.36932 31.6566 4.76705 31.6566 6.77841C31.6566 8.78977 32.8157 10.1364 34.7077 10.1364ZM32.6665 6.19886C32.7347 5.1804 33.4549 4.27273 34.6055 4.27273C35.6964 4.27273 36.3952 5.09091 36.3952 6.19886H32.6665ZM41.7944 3.45455H40.3967V1.88636H39.391V3.45455H38.4023V4.30682H39.391V8.39773C39.391 9.53977 40.3114 10.0852 41.1637 10.0852C41.5387 10.0852 41.7773 10.017 41.9137 9.96591L41.7092 9.0625C41.6239 9.07955 41.4876 9.11364 41.266 9.11364C40.8228 9.11364 40.3967 8.97727 40.3967 8.125V4.30682H41.7944V3.45455ZM43.3072 10H44.3129V5.85795C44.3129 4.97159 45.0117 4.32386 45.9663 4.32386C46.2347 4.32386 46.5117 4.375 46.5799 4.39205V3.36932C46.4648 3.3608 46.2006 3.35227 46.0515 3.35227C45.2674 3.35227 44.5856 3.79545 44.3469 4.44318H44.2788V3.45455H43.3072V10ZM49.6982 10.1534C50.8402 10.1534 51.4368 9.53977 51.6413 9.11364H51.6925V10H52.6982V5.6875C52.6982 3.60795 51.1129 3.36932 50.2777 3.36932C49.2891 3.36932 48.1641 3.71023 47.6527 4.90341L48.6072 5.24432C48.8288 4.76705 49.353 4.25568 50.3118 4.25568C51.2365 4.25568 51.6925 4.74574 51.6925 5.58523V5.61932C51.6925 6.10511 51.1982 6.0625 50.005 6.21591C48.7905 6.37358 47.4652 6.64205 47.4652 8.14205C47.4652 9.42045 48.4538 10.1534 49.6982 10.1534ZM49.8516 9.25C49.0504 9.25 48.4709 8.89205 48.4709 8.19318C48.4709 7.42614 49.1697 7.1875 49.9538 7.08523C50.38 7.03409 51.522 6.91477 51.6925 6.71023V7.63068C51.6925 8.44886 51.0447 9.25 49.8516 9.25ZM59.1701 4.92045C58.8548 3.99148 58.1474 3.36932 56.8519 3.36932C55.4712 3.36932 54.4485 4.15341 54.4485 5.26136C54.4485 6.16477 54.9854 6.76989 56.1871 7.05114L57.2781 7.30682C57.9386 7.46023 58.2496 7.77557 58.2496 8.22727C58.2496 8.78977 57.6531 9.25 56.7156 9.25C55.8931 9.25 55.3775 8.89631 55.1985 8.19318L54.244 8.43182C54.4783 9.54403 55.3945 10.1364 56.7326 10.1364C58.2539 10.1364 59.2894 9.3054 59.2894 8.17614C59.2894 7.2642 58.7184 6.68892 57.5508 6.40341L56.5792 6.16477C55.8036 5.97301 55.4542 5.71307 55.4542 5.21023C55.4542 4.64773 56.0508 4.23864 56.8519 4.23864C57.7298 4.23864 58.092 4.72443 58.2667 5.17614L59.1701 4.92045ZM64.1783 10H65.1839V5.90909C65.1839 4.95028 65.8828 4.27273 66.6669 4.27273C67.4297 4.27273 67.9624 4.77131 67.9624 5.51705V10H68.9851V5.73864C68.9851 4.89489 69.5135 4.27273 70.4339 4.27273C71.1499 4.27273 71.7635 4.65199 71.7635 5.61932V10H72.7692V5.61932C72.7692 4.08097 71.9425 3.36932 70.7749 3.36932C69.8374 3.36932 69.1513 3.79972 68.8146 4.47727H68.7464C68.4226 3.77841 67.8516 3.36932 66.9908 3.36932C66.1385 3.36932 65.5078 3.77841 65.2351 4.47727H65.1499V3.45455H64.1783V10ZM74.608 10H75.6136V3.45455H74.608V10ZM75.1193 2.36364C75.5114 2.36364 75.8352 2.05682 75.8352 1.68182C75.8352 1.30682 75.5114 1 75.1193 1C74.7273 1 74.4034 1.30682 74.4034 1.68182C74.4034 2.05682 74.7273 2.36364 75.1193 2.36364ZM78.4613 6.0625C78.4613 4.92045 79.1687 4.27273 80.1317 4.27273C81.065 4.27273 81.6317 4.8821 81.6317 5.90909V10H82.6374V5.84091C82.6374 4.17045 81.7468 3.36932 80.4215 3.36932C79.4329 3.36932 78.8192 3.8125 78.5124 4.47727H78.4272V3.45455H77.4556V10H78.4613V6.0625ZM88.6001 7.32386C88.6001 8.55114 87.6626 9.11364 86.9126 9.11364C86.0774 9.11364 85.4808 8.5 85.4808 7.54545V3.45455H84.4751V7.61364C84.4751 9.28409 85.3615 10.0852 86.5888 10.0852C87.5774 10.0852 88.2251 9.55682 88.532 8.89205H88.6001V10H89.6058V3.45455H88.6001V7.32386ZM86.5888 2.56818H87.4751L88.8047 0.590909H87.6286L86.5888 2.56818ZM96.0842 4.92045C95.7688 3.99148 95.0614 3.36932 93.766 3.36932C92.3853 3.36932 91.3626 4.15341 91.3626 5.26136C91.3626 6.16477 91.8995 6.76989 93.1012 7.05114L94.1921 7.30682C94.8526 7.46023 95.1637 7.77557 95.1637 8.22727C95.1637 8.78977 94.5671 9.25 93.6296 9.25C92.8072 9.25 92.2915 8.89631 92.1126 8.19318L91.158 8.43182C91.3924 9.54403 92.3086 10.1364 93.6467 10.1364C95.168 10.1364 96.2035 9.3054 96.2035 8.17614C96.2035 7.2642 95.6325 6.68892 94.4648 6.40341L93.4933 6.16477C92.7177 5.97301 92.3683 5.71307 92.3683 5.21023C92.3683 4.64773 92.9648 4.23864 93.766 4.23864C94.6438 4.23864 95.006 4.72443 95.1808 5.17614L96.0842 4.92045ZM100.376 10.1364C101.825 10.1364 102.78 9.25 102.95 8.09091H101.945C101.757 8.80682 101.161 9.23295 100.376 9.23295C99.1832 9.23295 98.4162 8.24432 98.4162 6.72727C98.4162 5.24432 99.2003 4.27273 100.376 4.27273C101.263 4.27273 101.791 4.81818 101.945 5.41477H102.95C102.78 4.1875 101.74 3.36932 100.359 3.36932C98.5866 3.36932 97.4105 4.76705 97.4105 6.76136C97.4105 8.72159 98.5355 10.1364 100.376 10.1364ZM108.545 7.32386C108.545 8.55114 107.608 9.11364 106.858 9.11364C106.023 9.11364 105.426 8.5 105.426 7.54545V3.45455H104.42V7.61364C104.42 9.28409 105.307 10.0852 106.534 10.0852C107.523 10.0852 108.17 9.55682 108.477 8.89205H108.545V10H109.551V3.45455H108.545V7.32386ZM112.399 1.27273H111.393V10H112.399V1.27273ZM116.167 10.1534C117.309 10.1534 117.906 9.53977 118.11 9.11364H118.161V10H119.167V5.6875C119.167 3.60795 117.582 3.36932 116.746 3.36932C115.758 3.36932 114.633 3.71023 114.121 4.90341L115.076 5.24432C115.298 4.76705 115.822 4.25568 116.781 4.25568C117.705 4.25568 118.161 4.74574 118.161 5.58523V5.61932C118.161 6.10511 117.667 6.0625 116.474 6.21591C115.259 6.37358 113.934 6.64205 113.934 8.14205C113.934 9.42045 114.923 10.1534 116.167 10.1534ZM116.32 9.25C115.519 9.25 114.94 8.89205 114.94 8.19318C114.94 7.42614 115.638 7.1875 116.423 7.08523C116.849 7.03409 117.991 6.91477 118.161 6.71023V7.63068C118.161 8.44886 117.513 9.25 116.32 9.25ZM125.639 4.92045C125.324 3.99148 124.616 3.36932 123.321 3.36932C121.94 3.36932 120.917 4.15341 120.917 5.26136C120.917 6.16477 121.454 6.76989 122.656 7.05114L123.747 7.30682C124.407 7.46023 124.718 7.77557 124.718 8.22727C124.718 8.78977 124.122 9.25 123.184 9.25C122.362 9.25 121.846 8.89631 121.667 8.19318L120.713 8.43182C120.947 9.54403 121.863 10.1364 123.201 10.1364C124.723 10.1364 125.758 9.3054 125.758 8.17614C125.758 7.2642 125.187 6.68892 124.02 6.40341L123.048 6.16477C122.272 5.97301 121.923 5.71307 121.923 5.21023C121.923 4.64773 122.52 4.23864 123.321 4.23864C124.199 4.23864 124.561 4.72443 124.735 5.17614L125.639 4.92045ZM131.295 12.4545C132.202 12.4545 132.842 11.973 133.221 10.9545L136.008 3.47159L134.908 3.45455L133.102 8.67045H133.033L131.227 3.45455H130.136L132.556 10.0341L132.369 10.5455C132.002 11.5426 131.55 11.6364 130.817 11.4489L130.562 12.3352C130.664 12.3864 130.954 12.4545 131.295 12.4545ZM145.35 4.92045C145.034 3.99148 144.327 3.36932 143.032 3.36932C141.651 3.36932 140.628 4.15341 140.628 5.26136C140.628 6.16477 141.165 6.76989 142.367 7.05114L143.458 7.30682C144.118 7.46023 144.429 7.77557 144.429 8.22727C144.429 8.78977 143.833 9.25 142.895 9.25C142.073 9.25 141.557 8.89631 141.378 8.19318L140.424 8.43182C140.658 9.54403 141.574 10.1364 142.912 10.1364C144.434 10.1364 145.469 9.3054 145.469 8.17614C145.469 7.2642 144.898 6.68892 143.73 6.40341L142.759 6.16477C141.983 5.97301 141.634 5.71307 141.634 5.21023C141.634 4.64773 142.23 4.23864 143.032 4.23864C143.909 4.23864 144.272 4.72443 144.446 5.17614L145.35 4.92045ZM146.983 10H147.989V3.45455H146.983V10ZM147.494 2.36364C147.886 2.36364 148.21 2.05682 148.21 1.68182C148.21 1.30682 147.886 1 147.494 1C147.102 1 146.778 1.30682 146.778 1.68182C146.778 2.05682 147.102 2.36364 147.494 2.36364ZM150.836 6.0625C150.836 4.92045 151.544 4.27273 152.507 4.27273C153.44 4.27273 154.007 4.8821 154.007 5.90909V10H155.012V5.84091C155.012 4.17045 154.122 3.36932 152.797 3.36932C151.808 3.36932 151.194 3.8125 150.887 4.47727H150.802V3.45455H149.831V10H150.836V6.0625ZM162.151 10.1534C163.293 10.1534 163.89 9.53977 164.094 9.11364H164.146V10H165.151V5.6875C165.151 3.60795 163.566 3.36932 162.731 3.36932C161.742 3.36932 160.617 3.71023 160.106 4.90341L161.06 5.24432C161.282 4.76705 161.806 4.25568 162.765 4.25568C163.69 4.25568 164.146 4.74574 164.146 5.58523V5.61932C164.146 6.10511 163.651 6.0625 162.458 6.21591C161.244 6.37358 159.918 6.64205 159.918 8.14205C159.918 9.42045 160.907 10.1534 162.151 10.1534ZM162.305 9.25C161.504 9.25 160.924 8.89205 160.924 8.19318C160.924 7.42614 161.623 7.1875 162.407 7.08523C162.833 7.03409 163.975 6.91477 164.146 6.71023V7.63068C164.146 8.44886 163.498 9.25 162.305 9.25ZM169.646 10.1364C171.095 10.1364 172.049 9.25 172.22 8.09091H171.214C171.027 8.80682 170.43 9.23295 169.646 9.23295C168.453 9.23295 167.686 8.24432 167.686 6.72727C167.686 5.24432 168.47 4.27273 169.646 4.27273C170.532 4.27273 171.061 4.81818 171.214 5.41477H172.22C172.049 4.1875 171.01 3.36932 169.629 3.36932C167.856 3.36932 166.68 4.76705 166.68 6.76136C166.68 8.72159 167.805 10.1364 169.646 10.1364ZM176.434 10.1364C177.764 10.1364 178.735 9.47159 179.042 8.48295L178.071 8.21023C177.815 8.89205 177.223 9.23295 176.434 9.23295C175.254 9.23295 174.44 8.47017 174.393 7.06818H179.145V6.64205C179.145 4.20455 177.696 3.36932 176.332 3.36932C174.559 3.36932 173.383 4.76705 173.383 6.77841C173.383 8.78977 174.542 10.1364 176.434 10.1364ZM174.393 6.19886C174.461 5.1804 175.181 4.27273 176.332 4.27273C177.423 4.27273 178.122 5.09091 178.122 6.19886H174.393ZM181.68 6.0625C181.68 4.92045 182.387 4.27273 183.35 4.27273C184.284 4.27273 184.85 4.8821 184.85 5.90909V10H185.856V5.84091C185.856 4.17045 184.966 3.36932 183.64 3.36932C182.652 3.36932 182.038 3.8125 181.731 4.47727H181.646V3.45455H180.674V10H181.68V6.0625ZM190.54 3.45455H189.143V1.88636H188.137V3.45455H187.148V4.30682H188.137V8.39773C188.137 9.53977 189.058 10.0852 189.91 10.0852C190.285 10.0852 190.523 10.017 190.66 9.96591L190.455 9.0625C190.37 9.07955 190.234 9.11364 190.012 9.11364C189.569 9.11364 189.143 8.97727 189.143 8.125V4.30682H190.54V3.45455ZM194.642 10.1364C196.415 10.1364 197.608 8.78977 197.608 6.76136C197.608 4.71591 196.415 3.36932 194.642 3.36932C192.869 3.36932 191.676 4.71591 191.676 6.76136C191.676 8.78977 192.869 10.1364 194.642 10.1364ZM194.642 9.23295C193.295 9.23295 192.682 8.07386 192.682 6.76136C192.682 5.44886 193.295 4.27273 194.642 4.27273C195.989 4.27273 196.602 5.44886 196.602 6.76136C196.602 8.07386 195.989 9.23295 194.642 9.23295ZM203.779 4.92045C203.464 3.99148 202.757 3.36932 201.461 3.36932C200.081 3.36932 199.058 4.15341 199.058 5.26136C199.058 6.16477 199.595 6.76989 200.797 7.05114L201.887 7.30682C202.548 7.46023 202.859 7.77557 202.859 8.22727C202.859 8.78977 202.262 9.25 201.325 9.25C200.502 9.25 199.987 8.89631 199.808 8.19318L198.853 8.43182C199.088 9.54403 200.004 10.1364 201.342 10.1364C202.863 10.1364 203.899 9.3054 203.899 8.17614C203.899 7.2642 203.328 6.68892 202.16 6.40341L201.189 6.16477C200.413 5.97301 200.064 5.71307 200.064 5.21023C200.064 4.64773 200.66 4.23864 201.461 4.23864C202.339 4.23864 202.701 4.72443 202.876 5.17614L203.779 4.92045Z" fill="#495057"/>
</svg>
